<svg width="639" height="340" viewBox="0 0 639 340" fill="none" xmlns="http://www.w3.org/2000/svg">
<path d="M625.172 268.89C625.172 277.45 621.715 285.659 615.562 291.709C609.409 297.76 601.066 301.156 592.368 301.149H367.641C355.71 301.473 344.542 295.394 338.479 285.276C332.416 275.158 332.416 262.597 338.479 252.478C344.542 242.36 355.71 236.281 367.641 236.605H375.142C369.671 217.436 373.637 196.852 385.857 180.983C398.078 165.115 417.143 155.794 437.375 155.796H456.502C480.634 155.776 502.76 169.009 513.858 190.098C519.32 187.341 525.372 185.906 531.511 185.915H536.511C546.823 185.915 556.712 189.946 564.003 197.122C571.294 204.298 575.391 214.031 575.391 224.179V226.073C575.392 229.636 574.887 233.181 573.891 236.605H592.493C610.555 236.686 625.158 251.113 625.172 268.89V268.89Z" fill="#ADDDDD"/>
<path d="M636.214 259.689C636.214 268.249 632.757 276.458 626.604 282.509C620.452 288.559 612.108 291.955 603.41 291.949H378.684C366.752 292.273 355.584 286.194 349.521 276.076C343.458 265.957 343.458 253.396 349.521 243.278C355.584 233.16 366.752 227.081 378.684 227.405H386.184C380.714 208.236 384.679 187.651 396.9 171.783C409.12 155.915 428.185 146.593 448.417 146.596H467.544C491.676 146.576 513.802 159.809 524.901 180.898C530.362 178.14 536.414 176.706 542.553 176.715H547.553C557.865 176.715 567.754 180.746 575.045 187.922C582.337 195.098 586.433 204.83 586.433 214.978V216.873C586.434 220.435 585.929 223.98 584.933 227.405H603.535C621.597 227.486 636.2 241.913 636.214 259.689V259.689Z" fill="#E4F4F5" stroke="#ADDDDD" stroke-width="4"/>
<path fill-rule="evenodd" clip-rule="evenodd" d="M152.065 36.8986L252.279 83.6214L262.064 193.642L171.48 256.867L71.2654 210.144L62.5846 100.639L152.065 36.8986Z" stroke="#ADDDDD" stroke-width="3"/>
<path d="M400.926 55.9698L450.578 79.1189L455.426 133.629L410.545 164.954L360.894 141.805L356.593 87.5501L400.926 55.9698Z" fill="#FFDBDB"/>
<path d="M291.937 268.89C291.937 277.45 288.48 285.659 282.327 291.709C276.175 297.76 267.831 301.156 259.133 301.149H34.4066C22.4754 301.473 11.3069 295.394 5.24417 285.276C-0.818533 275.158 -0.818533 262.597 5.24417 252.478C11.3069 242.36 22.4754 236.281 34.4066 236.605H41.9074C36.4367 217.436 40.4021 196.852 52.6226 180.983C64.843 165.115 83.9083 155.794 104.14 155.796H123.267C147.399 155.776 169.526 169.009 180.624 190.098C186.085 187.341 192.137 185.906 198.276 185.915H203.276C213.588 185.915 223.477 189.946 230.768 197.122C238.06 204.298 242.156 214.031 242.156 224.179V226.073C242.157 229.636 241.652 233.181 240.656 236.605H259.258C277.32 236.686 291.923 251.113 291.937 268.89V268.89Z" fill="#ADDDDD"/>
<path d="M302.979 259.689C302.979 268.249 299.522 276.458 293.369 282.509C287.217 288.559 278.873 291.955 270.175 291.949H45.4488C33.5177 292.273 22.3491 286.194 16.2864 276.076C10.2237 265.957 10.2237 253.396 16.2864 243.278C22.3491 233.16 33.5177 227.081 45.4488 227.405H52.9497C47.479 208.236 51.4444 187.651 63.6648 171.783C75.8852 155.915 94.9505 146.593 115.182 146.596H134.309C158.441 146.576 180.568 159.809 191.666 180.898C197.128 178.14 203.18 176.706 209.318 176.715H214.319C224.63 176.715 234.519 180.746 241.811 187.922C249.102 195.098 253.198 204.83 253.198 214.978V216.873C253.199 220.435 252.694 223.98 251.698 227.405H270.3C288.363 227.486 302.965 241.913 302.979 259.689V259.689Z" fill="#E4F4F5" stroke="#ADDDDD" stroke-width="4"/>
<rect x="98.9354" y="88.5645" width="134.172" height="112.043" rx="1" fill="#261A4C"/>
<rect x="102.956" y="84.545" width="134.172" height="112.043" rx="1" fill="#ADDDDD"/>
<rect x="104.966" y="103.135" width="131.157" height="90.9407" rx="1" fill="white"/>
<ellipse cx="215.017" cy="94.5937" rx="3.51763" ry="3.51704" fill="white"/>
<ellipse cx="225.57" cy="94.5937" rx="3.51763" ry="3.51704" fill="white"/>
<rect x="110.996" y="93.0864" width="53.267" height="3.51704" rx="1" fill="white"/>
<rect x="110.996" y="121.223" width="23.1158" height="2.00974" rx="1" fill="#F56D6D"/>
<rect x="140.644" y="121.223" width="38.6939" height="2.00974" rx="1" fill="#F56D6D"/>
<rect x="124.564" y="133.784" width="59.2972" height="2.00974" rx="1" fill="#F56D6D"/>
<rect x="179.338" y="172.974" width="45.2267" height="2.00974" rx="1" fill="#F56D6D"/>
<rect x="144.665" y="160.413" width="45.2267" height="2.00974" rx="1" fill="#F56D6D"/>
<rect x="166.273" y="146.344" width="45.2267" height="2.00974" rx="1" fill="#F56D6D"/>
<rect x="134.112" y="146.344" width="27.6385" height="2.00974" rx="1" fill="#F56D6D"/>
<rect x="215.52" y="141.823" width="10.0504" height="2.00974" rx="1" fill="#F56D6D"/>
<rect x="200.444" y="133.784" width="24.1209" height="2.00974" rx="1" fill="#F56D6D"/>
<rect x="212.002" y="126.75" width="12.563" height="2.00974" rx="1" fill="#F56D6D"/>
<path d="M513.856 294.476C513.856 306.334 509.054 317.706 500.508 326.088C491.962 334.47 480.372 339.174 468.29 339.165H156.137C139.565 339.614 124.051 331.193 115.63 317.176C107.209 303.159 107.209 285.759 115.63 271.743C124.051 257.726 139.565 249.305 156.137 249.754H166.556C158.957 223.2 164.466 194.685 181.44 172.703C198.415 150.721 224.897 137.809 252.999 137.812H279.568C313.088 137.784 343.822 156.115 359.238 185.329C366.825 181.509 375.231 179.523 383.757 179.534H390.703C405.026 179.534 418.763 185.119 428.891 195.059C439.019 205 444.709 218.482 444.709 232.54V235.165C444.71 240.099 444.009 245.01 442.625 249.754H468.464C493.553 249.867 513.837 269.851 513.856 294.476V294.476Z" fill="#ADDDDD"/>
<path d="M529.194 281.732C529.194 293.59 524.392 304.961 515.846 313.343C507.3 321.725 495.71 326.429 483.628 326.42H171.476C154.903 326.869 139.389 318.448 130.968 304.431C122.547 290.414 122.547 273.014 130.968 258.998C139.389 244.981 154.903 236.56 171.476 237.009H181.894C174.295 210.455 179.804 181.94 196.778 159.958C213.753 137.976 240.235 125.064 268.337 125.067H294.906C328.426 125.039 359.16 143.37 374.576 172.584C382.163 168.764 390.569 166.778 399.096 166.79H406.042C420.365 166.79 434.101 172.374 444.229 182.314C454.357 192.255 460.047 205.737 460.047 219.795V222.42C460.048 227.354 459.347 232.265 457.963 237.009H483.802C508.891 237.122 529.175 257.106 529.194 281.732V281.732Z" fill="white" stroke="#ADDDDD"/>
<path fill-rule="evenodd" clip-rule="evenodd" d="M319.97 245.964C326.351 242.443 330.683 235.569 330.683 227.667C330.683 216.177 321.526 206.864 310.231 206.864C298.935 206.864 289.778 216.177 289.778 227.667C289.778 235.569 294.111 242.443 300.491 245.964V269.226C300.491 271.987 302.73 274.226 305.491 274.226H314.97C317.731 274.226 319.97 271.987 319.97 269.226V245.964Z" fill="#ADDDDD"/>
<rect x="379.99" y="91.2543" width="123.763" height="103.35" rx="1" fill="#261A4C"/>
<rect x="383.699" y="87.5466" width="123.762" height="103.35" rx="1" fill="#ADDDDD"/>
<rect x="385.553" y="104.694" width="120.981" height="83.8849" rx="1" fill="white"/>
<ellipse cx="487.066" cy="96.8157" rx="3.24471" ry="3.24417" fill="white"/>
<ellipse cx="496.8" cy="96.8157" rx="3.24471" ry="3.24417" fill="white"/>
<rect x="391.115" y="95.4254" width="49.1342" height="3.24417" rx="1" fill="white"/>
<rect x="391.115" y="121.379" width="21.3224" height="1.85381" rx="0.926907" fill="#F56D6D"/>
<rect x="418.464" y="121.379" width="35.6918" height="1.85381" rx="0.926907" fill="#F56D6D"/>
<rect x="403.631" y="132.965" width="54.6965" height="1.85381" rx="0.926905" fill="#F56D6D"/>
<rect x="314.633" y="132.965" width="54.6965" height="1.85381" rx="0.926905" fill="#F56D6D"/>
<rect x="303.972" y="132.965" width="8.80707" height="1.85381" rx="0.926905" fill="#F56D6D"/>
<rect x="337.346" y="144.088" width="54.6965" height="1.85381" rx="0.926905" fill="#F56D6D"/>
<rect x="324.83" y="144.088" width="11.1247" height="1.85381" rx="0.926905" fill="#F56D6D"/>
<rect x="351.252" y="155.211" width="18.0777" height="1.85381" rx="0.926907" fill="#F56D6D"/>
<rect x="454.155" y="169.114" width="41.7177" height="1.85381" rx="0.926907" fill="#F56D6D"/>
<rect x="422.172" y="157.528" width="41.7177" height="1.85381" rx="0.926903" fill="#F56D6D"/>
<rect x="442.104" y="144.551" width="41.7177" height="1.85381" rx="0.926905" fill="#F56D6D"/>
<rect x="412.438" y="144.551" width="25.4941" height="1.85381" rx="0.926905" fill="#F56D6D"/>
<rect x="487.529" y="140.38" width="9.2706" height="1.85381" rx="0.926905" fill="#F56D6D"/>
<rect x="473.624" y="132.965" width="22.2494" height="1.85381" rx="0.926905" fill="#F56D6D"/>
<rect x="484.285" y="126.477" width="11.5882" height="1.85381" rx="0.926905" fill="#F56D6D"/>
</svg>
