<svg xmlns="http://www.w3.org/2000/svg" width="123.316" height="57.289" viewBox="0 0 123.316 57.289">
  <g id="Group_2120" data-name="Group 2120" transform="translate(-67.32 -118.394)">
    <path id="Path_651" data-name="Path 651" d="M408.444,234.958v21.258a7.25,7.25,0,0,1-7.183,7.231h-.075a6.444,6.444,0,0,1-7.215-6.522V237.254a6.837,6.837,0,0,0-5.494-6.863,6.578,6.578,0,0,0-7.658,6.49v19.048a7.423,7.423,0,0,1-5.354,7.285,7.249,7.249,0,0,1-9.129-7V249.4c-1.729,1.3-11.312,6.414-13.157,4.726v1.321c0,10.673,7.875,20.1,18.505,21.064a20.272,20.272,0,0,0,15.694-5.349,20.279,20.279,0,0,0,13.471,5.418h.04c.1,0,.2.013.3.013a20.406,20.406,0,0,0,20.385-20.385v-36.3C411.448,216.493,408.444,229.221,408.444,234.958Z" transform="translate(-230.941 -100.942)" fill="#00b8d4"/>
    <path id="Path_652" data-name="Path 652" d="M203.88,250.247c0,3.985,13.157-4.363,13.157-4.363V240.5c0-10.67-7.875-20.1-18.5-21.064a20.285,20.285,0,0,0-15.7,5.351,20.267,20.267,0,0,0-13.471-5.419h-.04c-.1,0-.2-.016-.3-.016a20.406,20.406,0,0,0-20.385,20.388v36.3c10.131,3.415,13.157-8.786,13.157-14.523V239.735a7.25,7.25,0,0,1,7.183-7.231h.075a6.444,6.444,0,0,1,7.215,6.525v19.66a6.835,6.835,0,0,0,5.494,6.863,6.578,6.578,0,0,0,7.658-6.487V240a7.42,7.42,0,0,1,5.351-7.282,7.25,7.25,0,0,1,9.129,7Z" transform="translate(-81.32 -100.95)" fill="#424242"/>
  </g>
</svg>
