<svg xmlns="http://www.w3.org/2000/svg" xmlns:xlink="http://www.w3.org/1999/xlink" width="86.569" height="16.722" viewBox="0 0 86.569 16.722">
  <defs>
    <clipPath id="clip-path">
      <rect id="Rectangle_1290" data-name="Rectangle 1290" width="86.569" height="16.722" fill="none"/>
    </clipPath>
  </defs>
  <g id="Group_1034" data-name="Group 1034" transform="translate(-16.501 52.778)">
    <g id="Group_1034-2" data-name="Group 1034" transform="translate(16.501 -52.778)" clip-path="url(#clip-path)">
      <path id="Path_9670" data-name="Path 9670" d="M19.424,2.893A5.045,5.045,0,0,0,15.4,1.213a5.418,5.418,0,0,0-4.145,1.68,6.064,6.064,0,0,0-1.564,4.29,5.972,5.972,0,0,0,1.622,4.288,5.635,5.635,0,0,0,4.232,1.711,5.5,5.5,0,0,0,4.2-1.653.54.54,0,0,0,.23-.2l.087-.087c.029,0,0-.029.029-.058a1.4,1.4,0,0,0,.2-.695,1.329,1.329,0,0,0-1.334-1.334,1.382,1.382,0,0,0-1.043.492.028.028,0,0,1-.029.029,3.366,3.366,0,0,1-2.346.842,2.8,2.8,0,0,1-1.855-.668A2.975,2.975,0,0,1,12.7,8.024h7.622a.537.537,0,0,0,.608-.608V7.183a6.108,6.108,0,0,0-1.506-4.29M17.395,6.053h-4a.471.471,0,0,1-.492-.494,1.381,1.381,0,0,1,.085-.317,2.446,2.446,0,0,1,.668-.927A2.429,2.429,0,0,1,15.4,3.675a2.143,2.143,0,0,1,1.709.668,2.568,2.568,0,0,1,.668.985.22.22,0,0,1,.058.116v.029a.167.167,0,0,1,.029.114.459.459,0,0,1-.465.465" transform="translate(9.065 1.136)" fill="#3f3f41"/>
      <path id="Path_9671" data-name="Path 9671" d="M25.981,2.893a5.045,5.045,0,0,0-4.029-1.68,5.376,5.376,0,0,0-4.145,1.68,6.064,6.064,0,0,0-1.564,4.29,5.972,5.972,0,0,0,1.622,4.288A5.591,5.591,0,0,0,22.1,13.183a5.546,5.546,0,0,0,4.2-1.653.769.769,0,0,0,.23-.2l.087-.087c.029,0,0-.029.029-.058a1.4,1.4,0,0,0,.2-.695,1.329,1.329,0,0,0-1.334-1.334,1.382,1.382,0,0,0-1.043.492.028.028,0,0,1-.029.029,3.469,3.469,0,0,1-2.346.842,2.8,2.8,0,0,1-1.855-.668,2.975,2.975,0,0,1-.985-1.826h7.622a.537.537,0,0,0,.608-.608V7.183a6.108,6.108,0,0,0-1.506-4.29M23.952,6.053h-4a.471.471,0,0,1-.492-.494,1.289,1.289,0,0,1,.085-.317,2.173,2.173,0,0,1,.668-.927,2.429,2.429,0,0,1,1.738-.639,2.183,2.183,0,0,1,1.709.668,2.568,2.568,0,0,1,.668.985.22.22,0,0,1,.058.116v.029a.176.176,0,0,1,.027.114.457.457,0,0,1-.463.465" transform="translate(15.202 1.136)" fill="#3f3f41"/>
      <path id="Path_9672" data-name="Path 9672" d="M42.09,2.893a5.045,5.045,0,0,0-4.029-1.68,5.418,5.418,0,0,0-4.145,1.68,6.064,6.064,0,0,0-1.564,4.29,5.972,5.972,0,0,0,1.622,4.288,5.635,5.635,0,0,0,4.232,1.711,5.612,5.612,0,0,0,4.232-1.653.688.688,0,0,0,.2-.2l.087-.087c.029,0,0-.029.029-.058a1.4,1.4,0,0,0,.2-.695,1.329,1.329,0,0,0-1.334-1.334,1.382,1.382,0,0,0-1.043.492.028.028,0,0,1-.029.029,3.366,3.366,0,0,1-2.346.842,2.8,2.8,0,0,1-1.855-.668,2.975,2.975,0,0,1-.985-1.826h7.622a.537.537,0,0,0,.608-.608V7.183a6.108,6.108,0,0,0-1.506-4.29M40.061,6.053h-4a.471.471,0,0,1-.492-.494c0-.029.056-.288.114-.317a2.118,2.118,0,0,1,.639-.927,2.477,2.477,0,0,1,1.738-.639,2.143,2.143,0,0,1,1.709.668,2.568,2.568,0,0,1,.668.985.22.22,0,0,1,.058.116v.029a.176.176,0,0,1,.027.114.457.457,0,0,1-.463.465" transform="translate(30.279 1.136)" fill="#00b8d4"/>
      <path id="Path_9673" data-name="Path 9673" d="M48.647,2.893a5.045,5.045,0,0,0-4.029-1.68,5.376,5.376,0,0,0-4.145,1.68,6.064,6.064,0,0,0-1.564,4.29,5.972,5.972,0,0,0,1.622,4.288,5.591,5.591,0,0,0,4.232,1.711,5.546,5.546,0,0,0,4.2-1.653.793.793,0,0,0,.23-.2l.087-.087c.029,0,0-.029.029-.058a1.4,1.4,0,0,0,.2-.695,1.329,1.329,0,0,0-1.334-1.334,1.382,1.382,0,0,0-1.043.492.028.028,0,0,1-.029.029,3.469,3.469,0,0,1-2.346.842,2.8,2.8,0,0,1-1.855-.668,2.975,2.975,0,0,1-.985-1.826h7.622a.537.537,0,0,0,.608-.608V7.183a6.108,6.108,0,0,0-1.506-4.29M46.618,6.053h-4a.471.471,0,0,1-.492-.494,1.289,1.289,0,0,1,.085-.317,2.173,2.173,0,0,1,.668-.927,2.429,2.429,0,0,1,1.738-.639,2.143,2.143,0,0,1,1.709.668A2.568,2.568,0,0,1,47,5.329a.22.22,0,0,1,.058.116v.029a.167.167,0,0,1,.029.114.459.459,0,0,1-.465.465" transform="translate(36.416 1.136)" fill="#00b8d4"/>
      <path id="Path_9674" data-name="Path 9674" d="M12.549,1.241A5.057,5.057,0,0,0,8.578,2.575,5.094,5.094,0,0,0,5.186,1.212H5.1A5.108,5.108,0,0,0,0,6.313v9.13c2.55.84,3.3-2.2,3.3-3.653V6.313a1.806,1.806,0,0,1,1.8-1.8h.23a1.579,1.579,0,0,1,1.6,1.622v4.956A1.687,1.687,0,0,0,8.317,12.8a1.65,1.65,0,0,0,1.913-1.622V6.4a1.845,1.845,0,0,1,1.334-1.826,1.8,1.8,0,0,1,2.29,1.738v4.869a1.069,1.069,0,0,0,.029.317A1.7,1.7,0,0,0,15.5,12.833a1.528,1.528,0,0,0,1.16-.492,1.289,1.289,0,0,0,.232-.319,2.084,2.084,0,0,0,.23-.724v-.116L17.156,6.6a5.272,5.272,0,0,0-4.607-5.363" transform="translate(0 1.135)" fill="#3f3f41"/>
      <path id="Path_9675" data-name="Path 9675" d="M27.378,14.346a5.057,5.057,0,0,0,3.971-1.334,5.094,5.094,0,0,0,3.392,1.363h.085a5.108,5.108,0,0,0,5.1-5.1V.144c-2.55-.84-3.3,2.2-3.3,3.653V9.274a1.806,1.806,0,0,1-1.8,1.8H34.6A1.579,1.579,0,0,1,33,9.448V4.492a1.687,1.687,0,0,0-1.39-1.709A1.65,1.65,0,0,0,29.7,4.4V9.186a1.845,1.845,0,0,1-1.334,1.826,1.8,1.8,0,0,1-2.29-1.738V4.4a1.069,1.069,0,0,0-.029-.317,1.7,1.7,0,0,0-1.622-1.334,1.528,1.528,0,0,0-1.16.492,1.289,1.289,0,0,0-.232.319,2.084,2.084,0,0,0-.23.724V4.4l-.029,4.578a5.272,5.272,0,0,0,4.607,5.363" transform="translate(21.312 0)" fill="#00b8d4"/>
    </g>
  </g>
</svg>
